<?xml version="1.0" encoding="UTF-8" standalone="no"?>
<!-- Generator: Adobe Illustrator 26.0.1, SVG Export Plug-In . SVG Version: 6.00 Build 0)  -->

<svg
   version="1.1"
   id="Capa_1"
   x="0px"
   y="0px"
   viewBox="0 0 24 24"
   style="enable-background:new 0 0 24 24;"
   xml:space="preserve"
   width="512"
   height="512"
   sodipodi:docname="fb.svg"
   inkscape:version="1.2.1 (0f2f062aeb, 2022-09-21, custom)"
   xmlns:inkscape="http://www.inkscape.org/namespaces/inkscape"
   xmlns:sodipodi="http://sodipodi.sourceforge.net/DTD/sodipodi-0.dtd"
   xmlns="http://www.w3.org/2000/svg"
   xmlns:svg="http://www.w3.org/2000/svg"><defs
   id="defs25" /><sodipodi:namedview
   id="namedview23"
   pagecolor="#ffffff"
   bordercolor="#000000"
   borderopacity="0.25"
   inkscape:showpageshadow="2"
   inkscape:pageopacity="0.0"
   inkscape:pagecheckerboard="0"
   inkscape:deskcolor="#d1d1d1"
   showgrid="false"
   inkscape:zoom="1.5390625"
   inkscape:cx="126.37563"
   inkscape:cy="292.06091"
   inkscape:window-width="1846"
   inkscape:window-height="1016"
   inkscape:window-x="0"
   inkscape:window-y="0"
   inkscape:window-maximized="1"
   inkscape:current-layer="g20" />
<g
   id="g20">
	<path
   d="m 24,12.073 c 0,5.989 -4.394,10.954 -10.13,11.855 v -8.363 h 2.789 l 0.531,-3.46 H 13.87 V 9.86 c 0,-0.947 0.464,-1.869 1.95,-1.869 h 1.509 V 5.045 c 0,0 -1.37,-0.234 -2.679,-0.234 -2.734,0 -4.52,1.657 -4.52,4.656 v 2.637 H 7.091 v 3.46 h 3.039 v 8.363 C 4.395,23.025 0,18.061 0,12.073 c 0,-6.627 5.373,-12 12,-12 6.627,0 12,5.372 12,12 z"
   id="path18"
   style="fill:#ffffff;fill-opacity:1"
   sodipodi:nodetypes="scccccssccsscccccsss" />
<path
   d="m 13.861905,23.923841 v -8.362996 h 2.789 l 0.531,-3.459999 h -3.32 V 9.8558446 c 0,-0.9469999 0.464,-1.8690004 1.95,-1.8690004 h 1.509 V 5.0408437 c 0,0 -1.37,-0.234 -2.679,-0.234 -2.734,0 -4.52,1.657 -4.52,4.6560003 v 2.637 H 7.0829062 v 3.460001 h 3.0389988 v 8.362995"
   style="fill:#000000;fill-opacity:1"
   id="path2546" /></g>

</svg>
